<?xml version="1.0" encoding="utf-8"?>
<!-- Generator: Adobe Illustrator 19.0.0, SVG Export Plug-In . SVG Version: 6.00 Build 0)  -->
<svg version="1.1" id="Layer_1" xmlns="http://www.w3.org/2000/svg" xmlns:xlink="http://www.w3.org/1999/xlink" x="0px" y="0px"
	 viewBox="0 0 1000 800" style="enable-background:new 0 0 1000 800;" xml:space="preserve">
<style type="text/css">
	.st0{fill:#3F3F3F;stroke:#231F20;stroke-miterlimit:10;}
	.st1{fill:none;stroke:#FFCB52;stroke-width:2.0759;stroke-linecap:round;stroke-linejoin:round;stroke-miterlimit:10;}
	.st2{fill:#FFCB52;}
	.st3{fill:none;stroke:#0DDEFF;stroke-width:1.5195;stroke-linecap:round;stroke-linejoin:round;stroke-miterlimit:10;}
	.st4{fill:none;stroke:#57FFB3;stroke-width:1.5195;stroke-linecap:round;stroke-linejoin:round;stroke-miterlimit:10;}
	.st5{fill:#57FFB3;}
	.st6{fill:none;stroke:#FF638F;stroke-width:1.5195;stroke-linecap:round;stroke-linejoin:round;stroke-miterlimit:10;}
	.st7{fill:none;stroke:#9DCBE3;stroke-width:1.5195;stroke-linecap:round;stroke-linejoin:round;stroke-miterlimit:10;}
	.st8{fill:none;stroke:#D88BFF;stroke-width:1.5195;stroke-linecap:round;stroke-linejoin:round;stroke-miterlimit:10;}
	.st9{fill:none;stroke:#FFCB52;stroke-width:1.5196;stroke-linecap:round;stroke-linejoin:round;stroke-miterlimit:10;}
	.st10{fill:none;stroke:#C9F8FF;stroke-width:1.5196;stroke-linecap:round;stroke-linejoin:round;stroke-miterlimit:10;}
	.st11{fill:#9DCBE3;}
	.st12{fill:none;stroke:#FF7657;stroke-width:1.5195;stroke-linecap:round;stroke-linejoin:round;stroke-miterlimit:10;}
	.st13{fill:none;stroke:#0DDEFF;stroke-width:1.5196;stroke-linecap:round;stroke-linejoin:round;stroke-miterlimit:10;}
	.st14{fill:#FF638F;}
	.st15{font-family:'Avenir-Medium';}
	.st16{font-size:11.2367px;}
	.st17{fill:none;stroke:#57FFB3;stroke-width:1.47;stroke-linecap:round;stroke-linejoin:round;stroke-miterlimit:10;}
	.st18{fill:#0DDEFF;}
	.st19{fill:none;stroke:#FFC2D3;stroke-width:1.5195;stroke-linecap:round;stroke-linejoin:round;stroke-miterlimit:10;}
	.st20{fill:none;stroke:#C2F8FF;stroke-width:1.5195;stroke-linecap:round;stroke-linejoin:round;stroke-miterlimit:10;}
	.st21{fill:#FF7657;}
</style>
<rect id="XMLID_1_" class="st0" width="1002" height="801"/>
<g id="XMLID_265_">
	<line id="XMLID_442_" class="st1" x1="224.1" y1="296.9" x2="239.8" y2="296.9"/>
	<g id="XMLID_435_">
		<path id="XMLID_20_" class="st2" d="M227.1,305.3l5.3-8.8c0.4-0.7,1.3-0.9,2-0.5c0.7,0.4,0.9,1.3,0.5,2c0,0.1-0.1,0.2-0.2,0.2
			l-6.9,7.7c-0.2,0.2-0.5,0.2-0.7,0C227,305.7,227,305.5,227.1,305.3z"/>
	</g>
	<g id="XMLID_266_">
		<path id="XMLID_35_" class="st2" d="M223,294.6c-0.3,0-0.6,0.2-0.6,0.6v1.8v1.8c0,0.4,0.3,0.6,0.6,0.6c0.1,0,0.3-0.1,0.4-0.2
			l1.8-1.8c0.2-0.2,0.2-0.6,0-0.8l-1.8-1.8C223.3,294.6,223.1,294.6,223,294.6L223,294.6z"/>
	</g>
	<g id="XMLID_447_">
		<path id="XMLID_11_" class="st2" d="M227.9,288.1l6.9,7.7c0.5,0.6,0.5,1.5-0.1,2.1c-0.6,0.5-1.5,0.5-2.1-0.1
			c-0.1-0.1-0.1-0.2-0.2-0.2l-5.3-8.8c-0.1-0.2-0.1-0.5,0.2-0.7C227.5,287.9,227.7,287.9,227.9,288.1z"/>
	</g>
</g>
<path id="XMLID_453_" class="st3" d="M224.4,436.2l12.1-10.5c0.5-0.5,0.5-1.3-0.1-1.7l-5-3.8V440l5-3.8c0.6-0.4,0.6-1.2,0.1-1.7
	L224.4,424"/>
<line id="XMLID_455_" class="st4" x1="231.2" y1="508.6" x2="231.2" y2="496.5"/>
<g id="XMLID_449_">
	<g id="XMLID_40_">
		<path id="XMLID_41_" class="st5" d="M231.2,496.2c0.2,0,0.3,0.1,0.3,0.3s-0.1,0.3-0.3,0.3s-0.3-0.1-0.3-0.3S231,496.2,231.2,496.2
			 M231.2,494.7c-1,0-1.8,0.8-1.8,1.8s0.8,1.8,1.8,1.8c1,0,1.8-0.8,1.8-1.8S232.2,494.7,231.2,494.7L231.2,494.7z"/>
	</g>
</g>
<path id="XMLID_467_" class="st4" d="M225.9,492.8c-0.7,1.1-1,2.4-1,3.8s0.4,2.7,1,3.8"/>
<path id="XMLID_459_" class="st4" d="M221.9,490.3c-1.1,1.8-1.7,4-1.7,6.3c0,2.3,0.6,4.4,1.7,6.3"/>
<path id="XMLID_436_" class="st4" d="M236.5,492.8c0.7,1.1,1,2.4,1,3.8s-0.4,2.7-1,3.8"/>
<path id="XMLID_426_" class="st4" d="M240.5,490.3c1.1,1.8,1.7,4,1.7,6.3c0,2.3-0.6,4.4-1.7,6.3"/>
<g id="XMLID_452_">
	<path id="XMLID_454_" class="st4" d="M240.1,562.4c1.5,0.8,2.4,2.3,2.4,4.1v1.6c0,2.6-2.1,4.7-4.7,4.7h-8.2c-2.6,0-4.7-2.1-4.7-4.7
		v-1.6c0-2.6,2.1-4.7,4.7-4.7h5.2"/>
	<path id="XMLID_457_" class="st4" d="M222.3,566.9c-1.5-0.8-2.4-2.3-2.4-4.1v-1.6c0-2.6,2.1-4.7,4.7-4.7h8.2c2.6,0,4.7,2.1,4.7,4.7
		v1.6c0,2.6-2.1,4.7-4.7,4.7h-5.2"/>
</g>
<path id="XMLID_481_" class="st6" d="M449.6,283.4v8.5c0,2.6-2.1,4.7-4.7,4.7h-11.5c-2.6,0-4.7-2.1-4.7-4.7v-11.5
	c0-2.6,2.1-4.7,4.7-4.7h8.5"/>
<circle id="XMLID_477_" class="st6" cx="448.6" cy="276.7" r="3.4"/>
<circle id="XMLID_510_" class="st7" cx="435.4" cy="347.3" r="1.7"/>
<circle id="XMLID_473_" class="st7" cx="444.7" cy="359" r="1.7"/>
<path id="XMLID_456_" class="st7" d="M444.7,351.8h-9.3c-2.5,0-4.5-2-4.5-4.5l0,0c0-2.5,2-4.5,4.5-4.5h9.3c2.5,0,4.5,2,4.5,4.5l0,0
	C449.2,349.8,447.2,351.8,444.7,351.8z"/>
<path id="XMLID_482_" class="st7" d="M435.4,354.5h9.3c2.5,0,4.5,2,4.5,4.5l0,0c0,2.5-2,4.5-4.5,4.5h-9.3c-2.5,0-4.5-2-4.5-4.5l0,0
	C430.9,356.6,432.9,354.5,435.4,354.5z"/>
<path id="XMLID_472_" class="st8" d="M450.6,423.1c-1.4,0.9-3,1.4-4.8,1.4c-4.9,0-8.9-4-8.9-8.9c0-1.8,0.5-3.4,1.4-4.8l0,0
	c-4.4,1.1-7.7,5.1-7.7,9.9c0,5.6,4.6,10.2,10.2,10.2C445.5,430.8,449.5,427.6,450.6,423.1L450.6,423.1z"/>
<g id="XMLID_1087_">
	<path id="XMLID_997_" class="st7" d="M440.9,485.7l1.4-0.7c0.9-0.5,2.1-0.1,2.6,0.8l0.7,1.3c0.3,0.5,0.8,0.9,1.4,1l1.5,0.3
		c1,0.2,1.7,1.2,1.6,2.2l-0.2,1.5c-0.1,0.6,0.1,1.2,0.5,1.6l1.1,1.1c0.7,0.8,0.7,2,0,2.7l-1.1,1.1c-0.4,0.4-0.6,1-0.5,1.6l0.2,1.5
		c0.1,1-0.6,2-1.6,2.2l-1.5,0.3c-0.6,0.1-1.1,0.5-1.4,1l-0.7,1.3c-0.5,0.9-1.6,1.3-2.6,0.8l-1.4-0.7c-0.5-0.3-1.2-0.3-1.7,0
		l-1.4,0.7c-0.9,0.5-2.1,0.1-2.6-0.8l-0.7-1.3c-0.3-0.5-0.8-0.9-1.4-1l-1.5-0.3c-1-0.2-1.7-1.2-1.6-2.2l0.2-1.5
		c0.1-0.6-0.1-1.2-0.5-1.6l-1.1-1.1c-0.7-0.8-0.7-2,0-2.7l1.1-1.1c0.4-0.4,0.6-1,0.5-1.6l-0.2-1.5c-0.1-1,0.6-2,1.6-2.2l1.5-0.3
		c0.6-0.1,1.1-0.5,1.4-1l0.7-1.3c0.5-0.9,1.6-1.3,2.6-0.8l1.4,0.7C439.7,485.9,440.4,485.9,440.9,485.7z"/>
	<circle id="XMLID_996_" class="st7" cx="440" cy="496.2" r="5.9"/>
</g>
<g id="XMLID_513_">
	<g id="XMLID_437_">
		<polyline id="XMLID_474_" class="st3" points="437.5,565.6 434.8,560.5 432.1,565.6 		"/>
		<line id="XMLID_478_" class="st3" x1="433.1" y1="564.3" x2="436.5" y2="564.3"/>
	</g>
	<g id="XMLID_469_">
		<polyline id="XMLID_476_" class="st3" points="447.7,565.6 443.6,557.7 439.5,565.6 		"/>
		<line id="XMLID_500_" class="st3" x1="441.1" y1="563.3" x2="446.2" y2="563.3"/>
	</g>
</g>
<g id="XMLID_475_">
	<path id="XMLID_541_" class="st6" d="M648.1,362.1c1.7-2.4,2.6-5.3,2.6-8.4c0-3.1-1-6-2.7-8.5"/>
	<path id="XMLID_529_" class="st6" d="M645.5,359c1.1-1.5,1.7-3.4,1.7-5.3s-0.6-3.8-1.7-5.3"/>
	<path id="XMLID_524_" class="st6" d="M643,355.8c0.5-0.6,0.8-1.3,0.8-2.1c0-0.8-0.3-1.6-0.8-2.2"/>
</g>
<polygon id="XMLID_551_" class="st6" points="629.1,355.7 634,355.7 638.4,359.9 638.4,352.9 638.4,345.9 634,350.2 629.1,350.2 "/>
<circle id="XMLID_554_" class="st8" cx="640.4" cy="421.8" r="12.3"/>
<circle id="XMLID_468_" class="st3" cx="440" cy="562.5" r="12.3"/>
<circle id="XMLID_617_" class="st9" cx="498.1" cy="561.8" r="12.3"/>
<circle id="XMLID_67_" class="st10" cx="647.3" cy="561.8" r="12.3"/>
<path id="XMLID_557_" class="st8" d="M652.7,421.8c-1.7-3.6-4.4-3.6-6.1,0v0c-1.7,3.6-4.4,3.6-6.1,0c-1.7-3.6-4.4-3.6-6.1,0v0
	c-1.7,3.6-4.4,3.6-6.1,0"/>
<path id="XMLID_479_" class="st4" d="M638.5,487.7h0.6c1,0,1.8-0.8,1.8-1.8v-5.5"/>
<line id="XMLID_498_" class="st4" x1="634.2" y1="480.4" x2="634.2" y2="483.1"/>
<line id="XMLID_503_" class="st4" x1="646.2" y1="480.4" x2="646.2" y2="483.1"/>
<path id="XMLID_512_" class="st4" d="M644.8,490.8c-0.6,1.3-2.4,2.2-4.6,2.2c-2.2,0-4-0.9-4.6-2.2"/>
<path id="XMLID_480_" class="st4" d="M651.5,480.5v-2.4c0-1.9-1.6-3.5-3.5-3.5h-2.4"/>
<path id="XMLID_561_" class="st4" d="M628.9,480.5v-2.4c0-1.9,1.6-3.5,3.5-3.5h2.4"/>
<path id="XMLID_566_" class="st4" d="M634.8,497.2h-2.4c-1.9,0-3.5-1.6-3.5-3.5v0v-2.4"/>
<path id="XMLID_567_" class="st4" d="M645.6,497.2h2.4c1.9,0,3.5-1.6,3.5-3.5v0v-2.4"/>
<g id="XMLID_694_">
	<circle id="XMLID_564_" class="st7" cx="640.4" cy="285" r="12.3"/>
	<path id="XMLID_560_" class="st7" d="M628.8,288.9l6.1-6.1c0.9-0.9,2.3-0.9,3.2,0l4.4,4.4c0.9,0.9,2.3,0.9,3.2,0l1.3-1.3
		c0.9-0.9,2.3-0.9,3.2,0l2.2,2.2"/>
	<g id="XMLID_511_">
		<path id="XMLID_28_" class="st11" d="M644.2,281.3c-0.7,0-1.2,0.5-1.2,1.2s0.5,1.2,1.2,1.2s1.2-0.5,1.2-1.2
			S644.8,281.3,644.2,281.3L644.2,281.3z"/>
	</g>
</g>
<g id="XMLID_696_">
	<circle id="XMLID_701_" class="st4" cx="563.5" cy="496.2" r="12.3"/>
	<path id="XMLID_700_" class="st4" d="M551.9,500.1l6.1-6.1c0.9-0.9,2.3-0.9,3.2,0l4.4,4.4c0.9,0.9,2.3,0.9,3.2,0l1.3-1.3
		c0.9-0.9,2.3-0.9,3.2,0l2.2,2.2"/>
	<g id="XMLID_697_">
		<path id="XMLID_26_" class="st5" d="M567.3,492.6c-0.7,0-1.2,0.5-1.2,1.2c0,0.7,0.5,1.2,1.2,1.2c0.7,0,1.2-0.5,1.2-1.2
			C568.5,493.1,568,492.6,567.3,492.6L567.3,492.6z"/>
	</g>
</g>
<path id="XMLID_559_" class="st3" d="M233.1,370.7c-0.5-0.5-1.2-0.7-2-0.7c-0.8,0-1.4,0.3-2,0.7"/>
<path id="XMLID_570_" class="st3" d="M237.2,366.2c-1.6-1.4-3.7-2.3-6-2.3c-2.3,0-4.4,0.9-6,2.3"/>
<path id="XMLID_571_" class="st3" d="M241.2,361.7c-2.7-2.4-6.2-3.8-10-3.8c-3.8,0-7.3,1.4-10,3.8"/>
<circle id="XMLID_471_" class="st6" cx="289.4" cy="296.6" r="12.3"/>
<g id="XMLID_595_">
	<rect id="XMLID_594_" x="284.8" y="296.4" class="st6" width="9" height="5.7"/>
	<path id="XMLID_596_" class="st6" d="M285.5,296.4v-2.2l0,0c0-2.1,1.7-3.7,3.7-3.7l0,0c2.1,0,3.7,1.7,3.7,3.7l0,0v2.2"/>
</g>
<g id="XMLID_599_">
	<path id="XMLID_598_" class="st12" d="M283.3,361.5v-0.1c0-1.2-1.1-2.2-2.5-2.2h-0.3c-1.4,0-2.5,1-2.5,2.2l0,0c0,0.9,0.6,1.7,1.4,2
		l2.4,1c0.9,0.4,1.4,1.2,1.4,2v0c0,1.2-1.1,2.2-2.5,2.2h-0.3c-1.4,0-2.5-1-2.5-2.2v-0.1"/>
	<path id="XMLID_600_" class="st12" d="M300.6,361.5v-0.1c0-1.2-1.1-2.2-2.5-2.2h-0.3c-1.4,0-2.5,1-2.5,2.2l0,0c0,0.9,0.6,1.7,1.4,2
		l2.4,1c0.9,0.4,1.4,1.2,1.4,2v0c0,1.2-1.1,2.2-2.5,2.2h-0.3c-1.4,0-2.5-1-2.5-2.2v-0.1"/>
	<ellipse id="XMLID_597_" class="st12" cx="289.3" cy="363.9" rx="3.3" ry="4.8"/>
</g>
<rect id="XMLID_601_" x="279" y="425.8" class="st4" width="18.9" height="9.6"/>
<path id="XMLID_602_" class="st4" d="M299.5,428.1H298v5h1.6c0.6,0,1.1-0.5,1.1-1.1v-2.7C300.6,428.6,300.1,428.1,299.5,428.1z"/>
<g id="XMLID_604_">
	<g id="XMLID_30_">
		<path id="XMLID_31_" class="st11" d="M288.7,487.3c0.4,0,0.7,0.3,0.7,0.7v9.2c0,0.3,0.3,0.6,0.6,0.6l0,0c0,0,0,0,0,0
			c0.4,0,0.6-0.3,0.6-0.6V489c0-0.4,0.3-0.7,0.7-0.8c0,0,0,0,0.1,0c0.4,0,0.7,0.3,0.7,0.7v8.9v0.5c0,0.5,0.2,0.8,0.5,0.8
			c0.2,0,0.4-0.1,0.6-0.3c1.3-1.3,2.3-2.2,3-2.2c0.1,0,0.3,0,0.4,0.1c1,0.6-0.2,1.5-1.5,3.2c-1.8,2.4-1.1,7.6-6.3,7.6h-0.8
			c-3.2,0-5.8-2.6-5.8-5.8l0-9.5c0-0.4,0.3-0.7,0.7-0.8c0,0,0,0,0.1,0c0.4,0,0.7,0.3,0.7,0.7v5.2c0,0.4,0.3,0.6,0.6,0.6
			c0.4,0,0.6-0.3,0.6-0.6V489c0-0.4,0.3-0.7,0.7-0.8c0,0,0,0,0.1,0c0.4,0,0.7,0.3,0.7,0.7v8.3c0,0.4,0.3,0.6,0.6,0.6
			c0.4,0,0.6-0.3,0.6-0.6v-9.2C287.9,487.7,288.2,487.3,288.7,487.3C288.6,487.3,288.7,487.3,288.7,487.3 M288.7,485.8
			c-0.1,0-0.1,0-0.2,0c-0.7,0.1-1.4,0.5-1.7,1.1c-0.3-0.1-0.5-0.2-0.8-0.2c-0.1,0-0.1,0-0.2,0c-1.2,0.1-2,1.1-2,2.3v1.1
			c-0.2,0-0.3-0.1-0.5-0.1c-0.1,0-0.1,0-0.2,0c-1.2,0.1-2,1.1-2,2.3l0,9.5c0,4,3.3,7.3,7.3,7.3h0.8c4.7,0,5.8-3.5,6.5-5.8
			c0.3-0.9,0.6-1.8,1-2.4c0.3-0.4,0.6-0.7,0.9-1.1c0.8-1,1.5-1.8,1.3-2.9c-0.1-0.4-0.3-1.1-1.1-1.5c-0.3-0.2-0.7-0.3-1.1-0.3
			c-0.9,0-1.7,0.5-2.6,1.2V489c0-1.2-1-2.3-2.3-2.3c-0.1,0-0.1,0-0.2,0c-0.2,0-0.4,0.1-0.6,0.2C290.3,486.2,289.5,485.8,288.7,485.8
			L288.7,485.8z"/>
	</g>
</g>
<g id="XMLID_1084_">
	<circle id="XMLID_672_" class="st13" cx="289.1" cy="565.1" r="12.3"/>
	<g id="XMLID_603_">
		<line id="XMLID_654_" class="st13" x1="290.2" y1="562.2" x2="295.2" y2="570.3"/>
		<line id="XMLID_606_" class="st13" x1="287.8" y1="558.3" x2="289.1" y2="560.4"/>
		<line id="XMLID_658_" class="st13" x1="283.5" y1="569.7" x2="283.1" y2="570.3"/>
		<line id="XMLID_605_" class="st13" x1="290.5" y1="558.3" x2="284.6" y2="568"/>
		<line id="XMLID_659_" class="st13" x1="291.7" y1="568" x2="282.2" y2="568"/>
		<line id="XMLID_646_" class="st13" x1="296.1" y1="568" x2="293.7" y2="568"/>
	</g>
</g>
<g id="XMLID_643_">
	<path id="XMLID_611_" class="st13" d="M487,290.9V281c0-1.9,1.6-3.5,3.5-3.5h15.3c1.9,0,3.5,1.6,3.5,3.5v9.9c0,1.9-1.6,3.5-3.5,3.5
		h-15.3C488.5,294.5,487,292.9,487,290.9z"/>
	<path id="XMLID_609_" class="st13" d="M500.6,284c0,0-0.4-1.3-2.5-1.3c-1,0-2.3,0.5-2.4,1.6c-0.1,1.8,2.2,1.8,3.4,2.2
		c0.6,0.2,1.2,0.6,1.4,1.2c0.5,1.4-1.2,2.2-2.3,2.2c-2,0-2.5-1.3-2.5-1.3"/>
	<line id="XMLID_608_" class="st13" x1="498.1" y1="291.1" x2="498.1" y2="281.5"/>
</g>
<g id="XMLID_614_">
	<path id="XMLID_22_" class="st11" d="M501.2,342.9c1.6,0,3.1,0.6,4.3,1.7c2.7,2.5,2.7,6.6,0.2,9.2c-1.2,1.2-2.9,1.9-4.5,1.9
		c-0.7,0-1.4-0.1-2.1-0.4l0,0c-0.1,0-0.3-0.1-0.4-0.1c-0.6,0-1.1,0.5-1.1,1.1l0,1.8c0,0.3-0.2,0.5-0.5,0.5H495
		c-0.3,0-0.5,0.2-0.5,0.5v2c0,0.3-0.2,0.5-0.5,0.5h-3.8c-0.3,0-0.5-0.2-0.5-0.5v-2.5c0-0.1,0.1-0.3,0.1-0.4l5.4-5.4
		c0.3-0.3,0.3-0.7,0.2-1c-1.1-2.4-0.6-5.4,1.4-7.3C498.1,343.5,499.7,342.9,501.2,342.9 M501.2,341.6c-2,0-3.8,0.7-5.2,2.1
		c-2.3,2.2-3.1,5.6-1.9,8.5l-5.2,5.2c-0.3,0.3-0.5,0.8-0.5,1.3v2.5c0,1,0.8,1.8,1.8,1.8h3.8c1,0,1.8-0.8,1.8-1.8v-1.2h1.3
		c1,0,1.8-0.8,1.8-1.8l0-1.5c0.8,0.2,1.5,0.4,2.3,0.4c2,0,4-0.8,5.4-2.2c1.5-1.5,2.3-3.5,2.2-5.6c0-2.1-0.9-4.1-2.5-5.5
		C505,342.4,503.2,341.6,501.2,341.6L501.2,341.6z"/>
</g>
<g id="XMLID_612_">
	<path id="XMLID_15_" class="st11" d="M502,347c-0.4,0-0.8,0.2-1.1,0.5c-0.6,0.6-0.6,1.6,0,2.2c0.3,0.3,0.7,0.5,1.1,0.5
		s0.8-0.2,1.1-0.5c0.6-0.6,0.6-1.6,0-2.2C502.8,347.1,502.4,347,502,347L502,347z"/>
</g>
<g id="XMLID_607_">
	<path id="XMLID_613_" class="st13" d="M487,501.7v-10.9c0-1.3,1-2.3,2.3-2.3H507c1.3,0,2.3,1,2.3,2.3v10.9c0,1.3-1,2.3-2.3,2.3
		h-17.7C488,504,487,503,487,501.7z"/>
	<path id="XMLID_610_" class="st13" d="M487.2,490.3l10.2,7.6c0.6,0.4,1.4,0.4,2,0l9.7-7.6"/>
</g>
<circle id="XMLID_652_" class="st9" cx="498.1" cy="559.8" r="3.1"/>
<path id="XMLID_618_" class="st9" d="M503.4,572.5c0.5-6.5-2-7.2-5.2-7.2c-3.2,0-5.8,0.8-5.2,7.2"/>
<g id="XMLID_630_">
	<path id="XMLID_616_" class="st6" d="M709,282.8v8.5c0,2.6-2.1,4.7-4.7,4.7h-11.5c-2.6,0-4.7-2.1-4.7-4.7v-11.5
		c0-2.6,2.1-4.7,4.7-4.7h8.5"/>
	<path id="XMLID_615_" class="st6" d="M701.4,295.9h-8.5c-2.6,0-4.7-2.1-4.7-4.7v-11.5c0-2.6,2.1-4.7,4.7-4.7h11.5
		c2.6,0,4.7,2.1,4.7,4.7v8.5"/>
</g>
<text id="XMLID_631_" transform="matrix(1 0 0 1 692.7092 289.7477)" class="st14 st15 st16">31</text>
<g id="XMLID_1081_">
	<path id="XMLID_1067_" class="st9" d="M704.2,365h-11.4c-2.3,0-4.2-1.9-4.2-4.2v-13.9c0-2.3,1.9-4.2,4.2-4.2h11.4
		c2.3,0,4.2,1.9,4.2,4.2v13.9C708.4,363.1,706.5,365,704.2,365z"/>
	<line id="XMLID_1062_" class="st9" x1="692.5" y1="359.2" x2="704.4" y2="359.2"/>
	<line id="XMLID_1061_" class="st9" x1="692.5" y1="353.8" x2="704.4" y2="353.8"/>
	<line id="XMLID_1060_" class="st9" x1="692.5" y1="348.4" x2="704.4" y2="348.4"/>
</g>
<g id="XMLID_62_">
	<path id="XMLID_66_" class="st6" d="M822,757.9h-11.4c-2.3,0-4.2-1.9-4.2-4.2v-13.9c0-2.3,1.9-4.2,4.2-4.2H822
		c2.3,0,4.2,1.9,4.2,4.2v13.9C826.2,755.9,824.3,757.9,822,757.9z"/>
	<line id="XMLID_65_" class="st6" x1="810.3" y1="752.1" x2="822.2" y2="752.1"/>
	<line id="XMLID_64_" class="st6" x1="810.3" y1="746.7" x2="822.2" y2="746.7"/>
	<line id="XMLID_63_" class="st6" x1="810.3" y1="741.3" x2="822.2" y2="741.3"/>
</g>
<g id="XMLID_647_">
	<path id="XMLID_655_" class="st8" d="M704.2,433h-11.4c-2.3,0-4.2-1.9-4.2-4.2v-13.9c0-2.3,1.9-4.2,4.2-4.2h11.4
		c2.3,0,4.2,1.9,4.2,4.2v13.9C708.4,431.1,706.5,433,704.2,433z"/>
	<line id="XMLID_653_" class="st8" x1="695.6" y1="427.2" x2="704.4" y2="427.2"/>
	<line id="XMLID_651_" class="st8" x1="695.6" y1="421.8" x2="704.4" y2="421.8"/>
	<line id="XMLID_650_" class="st8" x1="695.6" y1="416.4" x2="704.4" y2="416.4"/>
	<line id="XMLID_657_" class="st8" x1="692.5" y1="427.2" x2="692.5" y2="427.2"/>
	<line id="XMLID_656_" class="st8" x1="692.5" y1="421.8" x2="692.5" y2="421.8"/>
	<line id="XMLID_641_" class="st8" x1="692.5" y1="416.4" x2="692.5" y2="416.4"/>
</g>
<path id="XMLID_638_" class="st4" d="M692.8,490.7c3.3,3.3,8.3,4.3,12.6,2.6c0.9-0.4,1.8-0.9,2.2-1.9c0.2-0.7,0.1-1.5-0.3-2.2
	c-0.4-0.6-1-1.2-1.5-1.6c-0.3-0.2-0.5-0.4-0.9-0.5c-0.4-0.1-0.9,0.1-1.3,0.4c-0.4,0.3-0.7,0.6-1,0.9c-1.3,0.9-3,0.6-4.4-0.1
	c-2.1-1.1-3.6-3.3-3.6-5.7c0-0.3,0-0.5,0.1-0.8c0.1-0.3,0.3-0.5,0.5-0.8c0.3-0.4,0.6-0.8,0.9-1.2c0.2-0.3,0.5-0.7,0.5-1.1
	c0-0.3-0.2-0.6-0.4-0.9c-0.5-0.7-1-1.3-1.7-1.7c-0.7-0.4-1.6-0.5-2.4-0.2c-0.8,0.4-1.2,1.1-1.5,1.9
	C688.6,482.3,689.5,487.4,692.8,490.7"/>
<g id="XMLID_1068_">
	<path id="XMLID_1070_" class="st4" d="M362.8,303c1-1.7,1.6-3.7,1.6-5.9v-0.6c0-6.5-5.3-11.9-11.9-11.9h-0.6
		c-6.5,0-11.9,5.3-11.9,11.9v0.6c0,6.5,5.3,11.9,11.9,11.9h0.6c2.1,0,4.1-0.6,5.9-1.6l0,0l4.1,1.1c0.9,0.2,1.7-0.6,1.4-1.4
		L362.8,303"/>
	<polyline id="XMLID_1069_" class="st4" points="358,295.7 355.7,298 353.4,295.7 351,298 348.7,295.7 346.4,298 	"/>
</g>
<g id="XMLID_973_">
	<path id="XMLID_975_" class="st17" d="M343.5,435.8v-9.5c0-0.9,0.8-1.7,1.7-1.7h9.3c0.9,0,1.7,0.8,1.7,1.7v9.5
		c0,0.9-0.8,1.7-1.7,1.7h-9.3C344.3,437.5,343.5,436.8,343.5,435.8z"/>
	<path id="XMLID_974_" class="st17" d="M356.2,428l4-2.3c0.8-0.5,1.8,0.1,1.8,1.1v8.8c0,0.9-1,1.5-1.8,1.1l-4-2.3"/>
</g>
<g id="XMLID_676_">
	<circle id="XMLID_673_" class="st13" cx="352.3" cy="497.4" r="12.3"/>
	<g id="XMLID_670_">
		<g id="XMLID_671_">
			<path id="XMLID_16_" class="st18" d="M352.3,491.4c2.2,0,4,1.8,4,4c0,0.6-0.3,2-2,4c-0.9,1-1.5,2-2,3c-0.5-1-1.2-2-2-3
				c-1.8-2-2-3.4-2-4C348.3,493.2,350.1,491.4,352.3,491.4 M352.3,489.9c-3.1,0-5.6,2.5-5.6,5.6c0,1.3,0.7,3.1,2.4,5
				c1.5,1.7,2.4,3.7,2.8,4.9c0.1,0.2,0.2,0.3,0.4,0.3c0.2,0,0.3-0.1,0.4-0.3c0.4-1.2,1.3-3.2,2.8-4.9c1.7-2,2.4-3.7,2.4-5
				C357.9,492.3,355.4,489.9,352.3,489.9L352.3,489.9z"/>
		</g>
	</g>
</g>
<g id="XMLID_678_">
	<circle id="XMLID_677_" class="st6" cx="352.3" cy="564.3" r="11.5"/>
	<line id="XMLID_675_" class="st19" x1="346.9" y1="569.7" x2="352.5" y2="564.1"/>
	<line id="XMLID_674_" class="st6" x1="352.3" y1="564.3" x2="357.6" y2="559"/>
</g>
<g id="XMLID_680_">
	<circle id="XMLID_684_" class="st13" cx="561.1" cy="286" r="11.5"/>
	<line id="XMLID_682_" class="st20" x1="555.7" y1="291.4" x2="561.2" y2="285.8"/>
	<line id="XMLID_681_" class="st6" x1="561.1" y1="286" x2="566.4" y2="280.7"/>
</g>
<g id="XMLID_679_">
	<g id="XMLID_691_">
		<path id="XMLID_693_" class="st9" d="M570.6,350.8v8.9c0,1.2-1,2.2-2.2,2.2H554c-1.2,0-2.2-1-2.2-2.2v-8.9"/>
		<polyline id="XMLID_692_" class="st9" points="572.6,351.9 561.2,344.2 549.9,351.9 		"/>
	</g>
	<g id="XMLID_686_">
		<path id="XMLID_687_" class="st9" d="M556.8,352.8l4.5-3l4.5,3v4c0,0.6-0.5,1-1,1h-6.9c-0.6,0-1-0.5-1-1V352.8z"/>
	</g>
</g>
<g id="XMLID_1016_">
	<ellipse id="XMLID_1020_" class="st9" cx="554.8" cy="426.1" rx="2.5" ry="2.5"/>
	<ellipse id="XMLID_1019_" class="st9" cx="566" cy="425" rx="2.5" ry="2.5"/>
	<polyline id="XMLID_1018_" class="st9" points="557.3,426 557.3,412.7 568.6,411.7 568.6,424.9 	"/>
	<line id="XMLID_1017_" class="st9" x1="557.3" y1="416.8" x2="568.6" y2="415.8"/>
</g>
<g id="XMLID_1082_">
	<path id="XMLID_695_" class="st8" d="M566.8,570.7H555c-2.4,0-4.3-2-4.3-4.3v-11.6c0-2.4,2-4.3,4.3-4.3h11.8c2.4,0,4.3,2,4.3,4.3
		v11.6C571.2,568.7,569.2,570.7,566.8,570.7z"/>
	<circle id="XMLID_583_" class="st8" cx="560.9" cy="560.5" r="4.2"/>
	<rect id="XMLID_582_" x="554.7" y="554.5" class="st8" width="0" height="0"/>
</g>
<circle id="XMLID_711_" class="st8" cx="761.4" cy="285" r="12.3"/>
<g id="XMLID_702_">
	<rect id="XMLID_957_" x="755.2" y="282.9" class="st8" width="4.2" height="4.2"/>
	<rect id="XMLID_709_" x="759.3" y="282.9" class="st8" width="4.2" height="4.2"/>
	<rect id="XMLID_959_" x="759.3" y="278.8" class="st8" width="4.2" height="4.2"/>
	<rect id="XMLID_960_" x="759.3" y="287.1" class="st8" width="4.2" height="4.2"/>
	<rect id="XMLID_958_" x="763.5" y="282.9" class="st8" width="4.2" height="4.2"/>
</g>
<circle id="XMLID_84_" class="st8" cx="866.3" cy="285" r="12.3"/>
<path id="XMLID_2_" class="st13" d="M767.4,343.7h-17.7c-1.3,0-2.4,1.1-2.4,2.4v9.7c0,1.3,1.1,2.4,2.4,2.4h17.7
	c1.3,0,2.4-1.1,2.4-2.4v-9.7C769.8,344.8,768.7,343.7,767.4,343.7z"/>
<line id="XMLID_3_" class="st13" x1="754.7" y1="362.1" x2="762.5" y2="362.1"/>
<g id="XMLID_4_">
	<g id="XMLID_54_">
		<path id="XMLID_55_" class="st21" d="M771.2,413.8c0,0-12.7,5.9-18.9,8.6c-1,0.5-1.9,0.7-2.8,0.7c-4.1,0-5.4-5.1-0.4-9.2
			c0,0-1.2,4.5,2.4,4.5C755.1,418.2,771.2,413.8,771.2,413.8 M749.2,413.8L749.2,413.8 M771.2,412.2c-0.1,0-0.3,0-0.4,0.1
			c-4.4,1.2-16.5,4.4-19.3,4.4c-0.6,0-0.8-0.2-0.8-0.3c-0.4-0.5-0.3-1.7-0.1-2.2c0-0.1,0.1-0.3,0.1-0.5c0-0.8-0.7-1.5-1.5-1.5h0
			c0,0,0,0,0,0c0,0,0,0,0,0h0h0c-0.4,0-0.7,0.1-1,0.4c-3.7,3.1-4.2,6.5-3.5,8.7c0.7,2,2.6,3.3,4.9,3.3c1.1,0,2.2-0.3,3.4-0.8
			c6.1-2.7,18.7-8.5,18.9-8.6c0.7-0.3,1.1-1.2,0.8-1.9C772.4,412.6,771.8,412.2,771.2,412.2L771.2,412.2z"/>
	</g>
</g>
<path id="XMLID_5_" class="st13" d="M755.2,480.3c-3.1,3-7.7,3.1-7.7,3.1c6.6,3.5,13.1,1.9,17.1-2.6c3.2-3.5,3.2-8.6,3-10.4l2.1-2.4
	l-3.3,0.3c-1.5-1.6-4.2-2.1-6.5-0.3s-1.2,4.5-1.2,4.5c-6.6-0.3-9.9-4.8-9.9-4.8S745.8,475.5,755.2,480.3z"/>
<g id="XMLID_6_">
	<circle id="XMLID_34_" class="st8" cx="758.7" cy="527.8" r="2"/>
	<path id="XMLID_9_" class="st8" d="M758.7,539.5c1.2,0,1.3-0.3,1.9-3.5c0.6-3.2-0.5-4.3-1.9-4.3s-2.5,1.1-1.9,4.3
		S757.5,539.5,758.7,539.5z"/>
	<path id="XMLID_8_" class="st8" d="M763.1,533.2c1.6-1.3,2.6-3.2,2.6-5.4c0-3.9-3.2-7-7-7s-7,3.2-7,7c0,2.2,1,4.1,2.6,5.4"/>
	<path id="XMLID_7_" class="st8" d="M762.9,538.1c4.1-1.7,6.9-5.6,6.9-10.3c0-6.1-5-11.1-11.1-11.1s-11.1,5-11.1,11.1
		c0,4.7,2.9,8.7,6.9,10.3"/>
</g>
<g id="XMLID_46_">
	<g id="XMLID_698_">
		<path id="XMLID_993_" class="st4" d="M748.4,570.8c0.4,4.4,3,8.3,7,10.3l1.7,0.9c0.5,0.2,1,0.2,1.5,0l1.7-0.9
			c2-1.1,3.7-2.6,4.9-4.5"/>
		<path id="XMLID_982_" class="st4" d="M766.4,574.3c0.5-1.3,0.8-2.7,0.9-4.1l0.4-8.1l0,0c-6.4-1.8-13.2-1.8-19.6,0l0,0l0.3,6.1"/>
	</g>
	<g id="XMLID_38_">
		<path id="XMLID_45_" class="st4" d="M767.2,570.8c-0.4,4.4-3,8.3-7,10.3l-1.7,0.9c-0.5,0.2-1,0.2-1.5,0l-1.7-0.9
			c-2-1.1-3.7-2.6-4.9-4.5"/>
		<path id="XMLID_44_" class="st4" d="M749.3,574.3c-0.5-1.3-0.8-2.7-0.9-4.1L748,562h0c6.4-1.8,13.2-1.8,19.6,0l0,0l-0.3,6.1"/>
	</g>
</g>
<g id="XMLID_181_">
	<polygon id="XMLID_417_" class="st9" points="758.8,616.1 746.6,610.6 758.8,605.1 771.1,610.6 	"/>
	<path id="XMLID_180_" class="st9" d="M767.4,612.3v4.2c0,1.5-4.1,3.9-8.5,3.9s-8.5-2.4-8.5-3.9v-4.2"/>
	<polyline id="XMLID_179_" class="st9" points="758.8,610.6 752.5,613.2 752.5,621.2 	"/>
</g>
<g id="XMLID_401_">
	<path id="XMLID_59_" class="st9" d="M757.1,636.1l-8.4-0.9c-1-0.1-1.7,0.8-1.7,1.7v14.3c0,0.9,0.8,1.6,1.7,1.7l8.4,0.9
		c0.9,0.1,1.7-0.8,1.7-1.7v-14.3C758.8,636.9,758.1,636.2,757.1,636.1z"/>
	<line id="XMLID_52_" class="st9" x1="749.4" y1="640" x2="756.5" y2="640.9"/>
	<line id="XMLID_51_" class="st9" x1="749.4" y1="644.1" x2="756.5" y2="645"/>
	<line id="XMLID_50_" class="st9" x1="749.4" y1="648.2" x2="756.5" y2="649"/>
	<path id="XMLID_49_" class="st9" d="M760.5,636.1l8.4-0.9c1-0.1,1.7,0.8,1.7,1.7v14.3c0,0.9-0.8,1.6-1.7,1.7l-8.4,0.9
		c-0.9,0.1-1.7-0.8-1.7-1.7v-14.3C758.8,636.9,759.6,636.2,760.5,636.1z"/>
	<line id="XMLID_48_" class="st9" x1="768.3" y1="640" x2="761.2" y2="640.9"/>
	<line id="XMLID_47_" class="st9" x1="768.3" y1="644.1" x2="761.2" y2="645"/>
	<line id="XMLID_93_" class="st9" x1="768.3" y1="648.2" x2="761.2" y2="649"/>
</g>
<g id="XMLID_399_">
	<path id="XMLID_145_" class="st3" d="M758.3,678L758.3,678c-6.3,0-11.5,5.2-11.5,11.5v0c0,6.3,5.2,11.5,11.5,11.5h0
		c6.3,0,11.5-5.2,11.5-11.5v0C769.8,683.1,764.6,678,758.3,678z"/>
	<polygon id="XMLID_144_" class="st3" points="754.8,684.5 763.4,689.5 754.8,694.4 	"/>
</g>
<path id="XMLID_1045_" class="st3" d="M751.8,719.1c-0.2,0-0.5,0-0.8,0c-3.2,0-5.7,2.6-5.7,5.7s2.6,5.7,5.7,5.7h14.5
	c3.2,0,5.7-2.6,5.7-5.7s-2.6-5.7-5.7-5.7c-0.3,0-0.5,0-0.8,0l0,0c-1.3-2.2-3.7-3.7-6.5-3.7C755.6,715.4,753.1,716.9,751.8,719.1"/>
<g id="XMLID_60_">
	<path id="XMLID_61_" class="st3" d="M766.9,768.9h-16.7c-1.6,0-2.9-1.3-2.9-2.9v-16.5c0-1.6,1.3-2.9,2.9-2.9h16.7
		c1.6,0,2.9,1.3,2.9,2.9V766C769.8,767.6,768.5,768.9,766.9,768.9z"/>
	<g id="XMLID_627_">
		<polyline id="XMLID_450_" class="st3" points="760.8,754.1 756.7,754.1 756.7,761.5 		"/>
		<line id="XMLID_628_" class="st3" x1="759.8" y1="757.8" x2="756.7" y2="757.8"/>
	</g>
</g>
<circle id="XMLID_36_" class="st9" cx="498.1" cy="620.4" r="10.9"/>
<g id="XMLID_623_">
	<polyline id="XMLID_451_" class="st9" points="498.1,626.5 501.6,619.9 494.7,620.8 498.1,614.2 	"/>
</g>
<circle id="XMLID_37_" class="st13" cx="642" cy="561.8" r="3.2"/>
<circle id="XMLID_69_" class="st6" cx="652.5" cy="561.8" r="3.2"/>
<g id="XMLID_72_">
	<path id="XMLID_70_" class="st6" d="M564.7,620.1L564.7,620.1c0,2.1-1.7,3.8-3.8,3.8h0c-2.1,0-3.8-1.7-3.8-3.8v0v-5.9
		c0-2.1,1.7-3.8,3.8-3.8h0c2.1,0,3.8,1.7,3.8,3.8V620.1z"/>
	<path id="XMLID_75_" class="st6" d="M567.9,622.4c-0.9,3-3.7,5.2-7,5.2h0c-3.3,0-6.1-2.2-7-5.2"/>
	<line id="XMLID_71_" class="st6" x1="560.9" y1="627.5" x2="560.9" y2="631.6"/>
</g>
<polygon id="XMLID_73_" class="st3" points="186.4,383.9 179,402.1 186,400 192.9,402.1 "/>
<g id="XMLID_68_">
	<circle id="XMLID_669_" class="st4" cx="792.4" cy="285" r="12.3"/>
	<circle id="XMLID_624_" class="st4" cx="792.4" cy="285" r="8.2"/>
	<circle id="XMLID_622_" class="st4" cx="792.4" cy="285" r="4"/>
	<line id="XMLID_569_" class="st4" x1="792.4" y1="285" x2="801" y2="276.3"/>
</g>
<g id="XMLID_74_">
	<circle id="XMLID_76_" class="st6" cx="826.9" cy="285" r="12.3"/>
	<path id="XMLID_568_" class="st6" d="M826.9,290.8c0,0,2.7-1.7,4.2-3.5c4.1-4.8-1-9.2-4.2-4.7c-3.2-4.5-8.3-0.1-4.2,4.7
		C824.2,289.1,826.9,290.8,826.9,290.8z"/>
</g>
<circle id="XMLID_81_" class="st12" cx="826.9" cy="350.9" r="12.3"/>
<polygon id="XMLID_77_" class="st8" points="866.3,288.6 862.3,290.7 863.1,286.2 859.8,283 864.3,282.4 866.3,278.3 868.4,282.4 
	872.9,283 869.6,286.2 870.4,290.7 "/>
<line id="XMLID_78_" class="st12" x1="819.5" y1="355.1" x2="829.4" y2="355.1"/>
<line id="XMLID_80_" class="st12" x1="821.9" y1="350.9" x2="831.8" y2="350.9"/>
<line id="XMLID_82_" class="st12" x1="824.4" y1="346.7" x2="834.3" y2="346.7"/>
</svg>
